HIERARCHY
ROOT Pelvis
{
	OFFSET 0.000000 0.000000 0.000000
	CHANNELS 6 Xposition Yposition Zposition Zrotation Yrotation Xrotation 
	JOINT Left_hip
	{
		OFFSET 0.076090 -0.089427 -0.010735
		CHANNELS 3 Zrotation Yrotation Xrotation
		JOINT Left_knee
		{
			OFFSET 0.030200 -0.359518 -0.003501
			CHANNELS 3 Zrotation Yrotation Xrotation
			JOINT Left_ankle
			{
				OFFSET -0.011005 -0.371022 -0.045888
				CHANNELS 3 Zrotation Yrotation Xrotation
				JOINT Left_foot
				{
					OFFSET 0.023930 -0.052103 0.111084
					CHANNELS 3 Zrotation Yrotation Xrotation
					End Site
					{
						OFFSET 0.000000 0.000000 0.000000
					}
				}
			}
		}
	}
	JOINT Right_hip
	{
		OFFSET -0.073836 -0.088112 -0.007709
		CHANNELS 3 Zrotation Yrotation Xrotation
		JOINT Right_knee
		{
			OFFSET -0.035715 -0.367809 -0.006536
			CHANNELS 3 Zrotation Yrotation Xrotation
			JOINT Right_ankle
			{
				OFFSET 0.013718 -0.371958 -0.043815
				CHANNELS 3 Zrotation Yrotation Xrotation
				JOINT Right_foot
				{
					OFFSET -0.021936 -0.046387 0.114542
					CHANNELS 3 Zrotation Yrotation Xrotation
					End Site
					{
						OFFSET 0.000000 0.000000 0.000000
					}
				}
			}
		}
	}
	JOINT Spine1
	{
		OFFSET -0.001865 0.102064 -0.019455
		CHANNELS 3 Zrotation Yrotation Xrotation
		JOINT Spine2
		{
			OFFSET 0.003082 0.129260 -0.001938
			CHANNELS 3 Zrotation Yrotation Xrotation
			JOINT Spine3
			{
				OFFSET 0.001104 0.048093 0.026561
				CHANNELS 3 Zrotation Yrotation Xrotation
				JOINT Neck
				{
					OFFSET -0.002010 0.204222 -0.047183
					CHANNELS 3 Zrotation Yrotation Xrotation
					JOINT Head
					{
						OFFSET 0.005050 0.063649 0.048489
						CHANNELS 3 Zrotation Yrotation Xrotation
						End Site
						{
							OFFSET 0.000000 0.000000 0.000000
						}
					}
				}
				JOINT Left_collar
				{
					OFFSET 0.072979 0.114065 -0.031633
					CHANNELS 3 Zrotation Yrotation Xrotation
					JOINT Left_shoulder
					{
						OFFSET 0.083419 0.032092 -0.006530
						CHANNELS 3 Zrotation Yrotation Xrotation
						JOINT Left_elbow
						{
							OFFSET 0.239393 -0.012014 -0.025060
							CHANNELS 3 Zrotation Yrotation Xrotation
							JOINT Left_wrist
							{
								OFFSET 0.227297 0.008116 0.000384
								CHANNELS 3 Zrotation Yrotation Xrotation
								JOINT Left_palm
								{
									OFFSET 0.074607 -0.009248 -0.012277
									CHANNELS 3 Zrotation Yrotation Xrotation
									End Site
									{
										OFFSET 0.000000 0.000000 0.000000
									}
								}
							}
						}
					}
				}
				JOINT Right_collar
				{
					OFFSET -0.074980 0.111880 -0.037894
					CHANNELS 3 Zrotation Yrotation Xrotation
					JOINT Right_shoulder
					{
						OFFSET -0.087565 0.034353 -0.009323
						CHANNELS 3 Zrotation Yrotation Xrotation
						JOINT Right_elbow
						{
							OFFSET -0.236838 -0.013719 -0.019794
							CHANNELS 3 Zrotation Yrotation Xrotation
							JOINT Right_wrist
							{
								OFFSET -0.235053 0.006433 -0.003853
								CHANNELS 3 Zrotation Yrotation Xrotation
								JOINT Right_palm
								{
									OFFSET -0.075499 -0.006894 -0.009792
									CHANNELS 3 Zrotation Yrotation Xrotation
									End Site
									{
										OFFSET 0.000000 0.000000 0.000000
									}
								}
							}
						}
					}
				}
			}
		}
	}
}
MOTION
Frames: 12
Frame Time: 0.100000
0.000000 0.000000 0.000000 174.983087 24.529249 -12.862892 3.866744 1.410404 6.013080 -2.759529 -7.315496 -7.594545 -2.243582 7.173584 -4.797838 4.645260 8.103422 -3.703303 -1.402177 -1.962900 5.439849 2.960563 3.417333 -5.397859 6.861189 -11.544870 -8.608948 -9.833696 7.641394 3.579347 2.671230 0.903385 2.884456 0.866535 -1.782398 0.022845 0.970797 -1.617369 0.516822 -0.480997 4.644941 -12.055987 -3.961196 -2.892437 3.949803 -29.074438 -2.197833 1.353032 -52.921775 -10.984355 7.349885 6.279977 -8.635164 2.305824 -4.320574 -0.887493 -0.613046 -8.743326 -4.885941 -9.842470 28.962391 5.413228 2.388851 48.194077 7.447741 13.209411 -8.536136 12.497830 -7.479011 3.532910 -0.750531 -1.261531 11.622963 7.122343 -6.218986 
-0.000318 -0.000139 0.000782 174.995868 24.478419 -13.124548 3.855730 1.320552 6.263648 -2.755342 -7.326640 -7.443326 -2.133468 7.248139 -4.958103 4.556712 8.216726 -3.719285 -1.384340 -1.955607 5.725963 2.922776 3.478049 -5.370152 6.851645 -11.595489 -8.677665 -9.787065 7.840544 3.609232 2.623214 1.012057 2.661861 0.788321 -1.633681 0.073234 0.832610 -1.465477 0.485738 -0.327731 4.346152 -11.450589 -3.932157 -3.173150 4.657763 -29.093321 -2.295375 1.324092 -52.698354 -11.472191 7.326991 6.856179 -10.124993 1.677078 -3.890784 -1.020447 -1.098398 -8.626172 -4.843989 -9.368325 28.902427 5.706917 2.465949 48.041196 7.613995 13.419817 -8.485592 13.130032 -7.245740 3.452044 -0.761097 -1.057591 11.493105 7.116205 -6.050862 
-0.001189 -0.000053 0.002441 174.862437 24.991140 -13.559378 3.940702 1.306438 6.743432 -2.780335 -7.738178 -7.415808 -2.037102 7.217930 -5.157094 4.364541 8.146968 -3.832416 -1.377490 -2.126104 6.383076 2.952700 3.562176 -5.457064 6.475300 -11.852042 -8.953259 -9.227182 7.836918 3.872256 2.505771 1.079441 2.407343 0.796879 -1.532898 0.347887 0.704408 -1.491450 0.643037 -0.017492 4.046015 -11.148707 -3.982018 -3.488169 4.861062 -29.858718 -1.281124 1.670726 -52.488450 -10.550986 7.536559 6.452097 -10.817101 2.920545 -4.405531 -1.128183 -0.909487 -8.745144 -4.897314 -9.502384 29.749468 4.836553 2.688215 47.862654 6.528296 13.469958 -8.045744 12.318839 -6.671359 3.721922 -0.975699 -0.598752 11.618497 7.179112 -6.085626 
-0.001820 -0.000147 0.003537 174.727372 25.398277 -13.835527 4.000343 1.302648 7.014838 -2.767616 -8.062387 -7.416691 -2.075241 7.305729 -5.177873 4.449054 7.953964 -4.068624 -1.361540 -2.292548 6.805613 2.984134 3.641081 -5.568856 6.344329 -11.996316 -8.963484 -9.159051 7.621597 3.773359 2.416750 1.211428 2.276315 0.743912 -1.377913 0.566956 0.622106 -1.473367 1.025949 0.393026 3.596550 -11.254290 -3.630276 -3.878944 4.521728 -30.343452 0.080145 1.897789 -53.008070 -9.195043 7.571671 5.844637 -9.446677 4.096278 -5.181147 -1.046369 -0.644425 -8.791650 -4.922412 -9.911539 30.214004 3.700722 2.886698 48.614667 5.101990 13.489089 -7.505068 10.543806 -5.964360 4.213138 -1.256378 -0.390349 11.669509 7.176680 -6.208570 
-0.001760 -0.000029 0.003325 174.614943 25.688940 -13.970371 4.097377 1.302000 7.019865 -2.850374 -8.285055 -7.338377 -2.092971 7.387104 -5.156268 4.504554 7.738792 -4.205748 -1.347388 -2.406284 6.911782 3.048057 3.674195 -5.563875 6.160454 -12.036458 -8.903212 -9.043322 7.281497 3.672292 2.371411 1.312634 2.386671 0.691215 -1.230963 0.733470 0.592577 -1.412240 1.359594 0.685912 3.062782 -11.571010 -3.209084 -4.359099 3.902997 -30.591263 1.168583 2.115720 -53.570028 -7.868752 7.523555 5.290838 -7.492144 5.082344 -5.869474 -0.926445 -0.418426 -8.739456 -4.889881 -10.336178 30.440406 2.967620 3.117664 49.396801 3.987095 13.531179 -6.852528 8.594247 -5.036616 4.726126 -1.557028 -0.135519 11.627798 7.137748 -6.330662 
-0.001840 -0.000184 0.003132 174.574551 25.770669 -14.011531 4.111921 1.319578 7.117517 -2.820677 -8.421229 -7.520486 -2.264233 7.523684 -5.015666 4.809647 7.589395 -4.357721 -1.365651 -2.431740 6.981887 3.087276 3.754934 -5.659561 6.223024 -12.118655 -8.785628 -9.267157 7.163797 3.477166 2.395074 1.380630 2.353327 0.666564 -1.151621 0.930751 0.580314 -1.391911 1.656958 0.822307 2.704263 -11.589151 -2.990837 -4.635931 3.620042 -30.557553 1.934164 2.263544 -53.984541 -6.946202 7.446458 4.985289 -6.260748 5.526255 -6.176978 -0.868045 -0.454292 -8.706670 -4.868022 -10.632451 30.367430 2.485784 3.218051 49.875491 3.361048 13.618007 -6.516753 7.902311 -4.440248 4.904093 -1.657088 -0.096200 11.604737 7.096969 -6.425472 
-0.001309 -0.000149 0.002169 174.627533 25.569777 -13.976157 4.084860 1.382715 7.157814 -2.785576 -8.395989 -7.685720 -2.387595 7.641638 -4.911198 5.032580 7.569410 -4.416544 -1.400718 -2.368064 6.853048 3.118332 3.828756 -5.594956 6.351078 -12.099671 -8.738877 -9.465957 7.174131 3.356473 2.431709 1.461811 2.425837 0.663558 -1.071641 1.059254 0.575757 -1.346738 1.771128 0.890969 2.505671 -11.524613 -2.918086 -4.820302 3.614907 -30.417278 2.123543 2.287164 -54.005804 -6.682076 7.411207 4.973626 -6.167853 5.482114 -6.105937 -0.894675 -0.515046 -8.716129 -4.861552 -10.728363 30.190393 2.434622 3.219785 49.890221 3.294095 13.670025 -6.510296 8.283830 -4.321094 4.808440 -1.595427 -0.131276 11.601406 7.085096 -6.477205 
0.000896 0.000101 -0.000042 174.500354 25.789326 -14.090068 4.313756 1.324132 6.818370 -2.991546 -8.357053 -7.380246 -2.143538 7.392410 -4.825188 4.440759 7.710439 -4.027626 -1.237296 -2.376385 6.628034 3.139367 3.558536 -5.419163 5.837670 -12.008025 -8.595368 -8.700141 6.974061 3.864292 2.262632 1.442751 2.947908 0.749819 -1.202198 1.139628 0.623235 -1.287274 1.522728 1.409341 1.780791 -11.442446 -2.396528 -5.710180 3.492316 -30.154780 1.113094 2.463196 -53.358695 -7.438387 7.416158 4.998576 -6.491748 5.181558 -6.379377 -0.765915 -0.644052 -8.544409 -4.768576 -10.611365 29.919823 3.480222 3.205299 49.598468 4.233971 13.141739 -6.636519 7.663791 -5.149802 4.995535 -1.861536 -0.513407 11.412229 7.043255 -6.351568 
0.004185 -0.000295 -0.002100 174.398908 25.139643 -14.687463 4.560232 1.584277 7.002107 -3.057071 -7.876371 -6.743654 -0.536543 7.192306 -4.977632 1.858198 8.055621 -2.424448 -0.813722 -1.858045 6.786122 3.084242 2.957569 -5.069280 3.425700 -10.659611 -8.149325 -4.920078 4.504822 6.163766 1.795016 1.693650 3.857450 0.985370 -1.669384 1.640314 0.655898 -1.007383 0.481815 3.151677 -1.209496 -9.778162 -0.389370 -8.179391 2.036703 -28.654953 -2.421767 3.442194 -52.397939 -9.501836 7.995771 4.976694 -7.810517 5.709777 -9.341451 -0.278454 -1.676043 -8.193184 -4.070368 -10.870637 27.751846 6.859867 3.254251 49.887095 7.653152 10.662355 -7.525379 6.860648 -10.033724 6.754590 -2.986913 -6.314965 10.700289 6.670896 -6.167720 
0.008707 -0.000717 -0.004700 174.760533 23.114592 -14.300182 4.539824 1.851578 6.279110 -2.815142 -6.837377 -6.010198 -0.733987 7.191786 -5.094597 2.638791 8.898896 -2.616460 -0.399722 -0.868773 5.756764 2.799555 2.613120 -4.458511 3.670631 -9.557119 -8.126112 -4.969971 3.369335 6.749201 1.370559 1.318593 3.780875 1.434158 -2.252460 0.913944 0.591100 -1.325414 -0.119572 4.074258 -3.705678 -6.899737 -0.353036 -10.907894 4.217188 -25.494292 -3.210703 3.677700 -52.213095 -10.519566 10.649539 6.583673 -25.660471 9.976278 -8.314784 -1.336838 -1.945577 -8.730742 -3.292486 -11.075680 24.525603 7.845055 0.814934 51.629986 11.043555 11.266654 -11.243128 24.521494 -12.106549 5.621134 -1.101058 -11.487625 10.439016 6.404780 -5.920744 
0.011517 -0.001065 -0.005188 175.135939 21.449881 -13.198478 4.365824 1.099022 5.253867 -2.430062 -5.389972 -5.994259 -2.735022 7.655824 -5.392752 6.146447 9.029494 -3.676348 -0.190175 -0.156689 4.581846 2.452367 2.295564 -4.757824 6.537745 -9.071607 -8.118455 -8.496924 4.524646 5.581398 1.233064 0.744227 2.906902 1.753429 -2.014098 -0.896703 0.726659 -1.288372 -0.423332 3.136248 -4.123763 -5.168842 -2.228856 -11.899153 9.283330 -22.691399 -1.490132 2.589870 -54.173632 -12.585521 12.568837 14.372165 -50.741758 4.391450 -1.527323 -5.006934 -7.207631 -8.214404 -2.715802 -7.364133 22.359665 8.077694 -1.484850 52.086135 14.114447 14.397030 -17.736101 43.819884 -14.686919 2.355617 1.913194 -12.755091 9.484877 5.944468 -4.394600 
0.013628 -0.001427 -0.004781 175.178356 21.306647 -13.185194 4.767599 3.492770 5.420844 -2.577328 -3.913283 -6.636000 -5.892699 4.172113 -2.058594 10.570967 13.164011 -9.019057 -0.524822 0.801873 4.515386 3.371446 -2.708224 -4.609137 3.943776 -2.204664 -4.353984 -1.771911 -6.759423 4.156148 1.518075 -0.578332 1.846141 0.911065 -0.807514 0.099388 1.583238 -1.881736 -1.778791 3.691017 -5.638604 -4.452657 -5.490353 -10.775222 11.555528 -20.429345 -0.991587 1.902162 -58.150954 -15.381175 21.218669 60.718723 -76.845703 -25.704924 0.134633 -12.301960 16.320888 -11.524709 3.050444 -23.407278 16.702137 9.402641 -1.094839 59.734871 15.117318 18.475573 -44.726140 55.391456 -48.114757 -1.351365 8.451255 -65.217461 6.598453 -1.620577 -2.597066 
